# xmcd CD database file
#
# Track frame offsets:
#	150
#	18594
#	35196
#	53141
#	75156
#	95524
#	117179
#	133449
#	153942
#	173400
#	193702
#
# Disc length: 2761 seconds
#
# Revision: 6
# Processed by: cddbd v1.4PL0 Copyright (c) Steve Scherf et al.
# Submitted via: CDex 1.50Beta7
#
DISCID=890ac70b
DTITLE=Big In Iowa - Big In Iowa (German Release)
DYEAR=1999
DGENRE=Country-Rock
TTITLE0=Guppy
TTITLE1=Engine 883
TTITLE2=Big Daddy
TTITLE3=Mr. Becky
TTITLE4=Cindy
TTITLE5=Soul Searchin'
TTITLE6=Happy Song #3
TTITLE7=Mother Nature
TTITLE8=Nothing To Gain
TTITLE9=South Of Soho
TTITLE10=Start My Life
EXTD=(c)1999 Blue Rose Records/ZOMBA \nUPC 4028466301970 YEAR: 1999
EXTT0=
EXTT1=
EXTT2=
EXTT3=
EXTT4=
EXTT5=
EXTT6=
EXTT7=
EXTT8=
EXTT9=
EXTT10=
PLAYORDER=
